#!OML:ASF H:\ManfredETheater\Project 1\Capture day 1\Session 1\subject.ASF
:FULLY-SPECIFIED
:DEGREES
228
root 1.77411 17.9847 -26.2983 -178.988 -13.9593 -180.985
lowerback 10.3427 -2.14978 -1.09914
upperback -0.968672 -2.92081 1.79392
thorax -6.67695 -1.37145 2.97141
lowerneck -17.1622 -5.52405 -6.12634
upperneck 11.1941 -6.54532 3.6503
head 6.52723 -3.1241 1.45898
rclavicle -2.28105e-014 2.94201e-014
rhumerus -42.9687 -15.5903 -69.1358
rradius 44.797
rwrist -1.24785
rhand -24.9894 -10.6764
rfingers 7.12502
rthumb 1.52177 -40.6507
lclavicle -2.28105e-014 2.94201e-014
lhumerus -41.2947 10.7782 80.5632
lradius 42.8095
lwrist -9.5453
lhand -6.83585 3.2664
lfingers 7.12502
lthumb 19.0287 32.3556
rfemur -19.2561 9.24596 11.3964
rtibia 29.9361
rfoot -11.4032 2.35091
rtoes -24.7599
lfemur -19.9119 -6.88649 -20.3223
ltibia 36.9659
lfoot -17.9701 -14.0081
ltoes 9.27682
229
root 1.75265 17.9896 -26.3127 -178.933 -13.722 -180.942
lowerback 10.2135 -2.1473 -1.12309
upperback -1.05644 -2.91665 1.81022
thorax -6.69503 -1.36647 2.99785
lowerneck -17.3921 -5.49641 -6.08159
upperneck 11.3272 -6.50499 3.63378
head 6.60407 -3.10111 1.44497
rclavicle 2.79541e-014 8.74653e-015
rhumerus -42.8434 -15.4449 -69.5671
rradius 44.5294
rwrist -0.901633
rhand -24.7904 -10.5828
rfingers 7.12502
rthumb 1.71396 -40.5556
lclavicle 2.79541e-014 8.74653e-015
lhumerus -40.9032 10.5865 80.8323
lradius 42.0525
lwrist -9.93226
lhand -5.924 3.60068
lfingers 7.12502
lthumb 19.9054 32.6013
rfemur -19.3258 9.03766 11.4662
rtibia 30.1441
rfoot -11.6528 2.11117
rtoes -24.8236
lfemur -19.8537 -6.69093 -20.3355
ltibia 36.8946
lfoot -17.8741 -14.0174
ltoes 9.8299
230
root 1.73222 17.9941 -26.3264 -178.876 -13.4944 -180.921
lowerback 10.0928 -2.1449 -1.16596
upperback -1.13696 -2.91546 1.82085
thorax -6.70931 -1.3625 3.02958
lowerneck -17.6266 -5.46716 -6.03602
upperneck 11.4633 -6.46205 3.61335
head 6.68245 -3.0771 1.42985
rclavicle 4.09248e-014 -1.59028e-014
rhumerus -42.7053 -15.318 -69.988
rradius 44.2365
rwrist -0.510377
rhand -24.5848 -10.4798
rfingers 7.12502
rthumb 1.91258 -40.451
lclavicle 4.09248e-014 -1.59028e-014
lhumerus -40.5055 10.4167 81.0832
lradius 41.3303
lwrist -10.3228
lhand -5.07018 3.91665
lfingers 7.12502
lthumb 20.726 32.8299
rfemur -19.4162 8.72801 11.5327
rtibia 30.4326
rfoot -11.92 1.79977
rtoes -25.0969
lfemur -19.7933 -6.5259 -20.3738
ltibia 36.8238
lfoot -17.7879 -13.985
ltoes 10.3179
231
root 1.71305 17.998 -26.3389 -178.819 -13.275 -180.915
lowerback 9.99033 -2.14146 -1.21826
upperback -1.21459 -2.91447 1.8272
thorax -6.73066 -1.35825 3.06298
lowerneck -17.8639 -5.43793 -5.99304
upperneck 11.6031 -6.41864 3.59294
head 6.76271 -3.05295 1.41522
rclavicle 1.77664e-014 2.38542e-015
rhumerus -42.5641 -15.209 -70.3953
rradius 43.9253
rwrist -0.0901745
rhand -24.3704 -10.3545
rfingers 7.12502
rthumb 2.11962 -40.3237
lclavicle 1.77664e-014 2.38542e-015
lhumerus -40.1037 10.2606 81.3188
lradius 40.6334
lwrist -10.7032
lhand -4.31743 4.19999
lfingers 7.12502
lthumb 21.4491 33.0326
rfemur -19.5296 8.31939 11.6082
rtibia 30.805
rfoot -12.1914 1.40305
rtoes -25.5858
lfemur -19.7352 -6.39233 -20.4263
ltibia 36.7549
lfoot -17.7134 -13.9067
ltoes 10.7269
232
root 1.6949 18.0014 -26.3511 -178.767 -13.0688 -180.926
lowerback 9.89625 -2.13858 -1.28313
upperback -1.28443 -2.91617 1.82865
thorax -6.74795 -1.35507 3.09885
lowerneck -18.0921 -5.4069 -5.945
upperneck 11.7373 -6.37311 3.56285
head 6.83917 -3.02851 1.39726
rclavicle -1.88348e-014 -2.38542e-015
rhumerus -42.4265 -15.1088 -70.7917
rradius 43.611
rwrist 0.344748
rhand -24.1468 -10.2332
rfingers 7.12502
rthumb 2.33557 -40.2001
lclavicle -1.88348e-014 -2.38542e-015
lhumerus -39.6945 10.1236 81.5395
lradius 39.9581
lwrist -11.0804
lhand -3.6709 4.46141
lfingers 7.12502
lthumb 22.07 33.222
rfemur -19.6502 7.79879 11.6931
rtibia 31.2603
rfoot -12.4591 0.925602
rtoes -26.2686
lfemur -19.6715 -6.2909 -20.4984
ltibia 36.6921
lfoot -17.6557 -13.7901
ltoes 11.066
233
root 1.67799 18.0041 -26.3626 -178.72 -12.8747 -180.945
lowerback 9.81449 -2.13541 -1.35211
upperback -1.34879 -2.91829 1.82813
thorax -6.76631 -1.35203 3.13548
lowerneck -18.3147 -5.37569 -5.89763
upperneck 11.8688 -6.3272 3.53017
head 6.91388 -3.00425 1.37885
rclavicle 2.50966e-015 7.95139e-016
rhumerus -42.2945 -15.0276 -71.1717
rradius 43.2933
rwrist 0.791506
rhand -23.9049 -10.1209
rfingers 7.12502
rthumb 2.56918 -40.0851
lclavicle 2.50966e-015 7.95139e-016
lhumerus -39.2754 9.99946 81.7479
lradius 39.2945
lwrist -11.4473
lhand -3.16079 4.67687
lfingers 7.12502
lthumb 22.5596 33.3788
rfemur -19.7739 7.17207 11.8007
rtibia 31.7941
rfoot -12.7136 0.366894
rtoes -27.0903
lfemur -19.6093 -6.22139 -20.5767
ltibia 36.6394
lfoot -17.6089 -13.6392
ltoes 11.3488
234
root 1.66245 18.0062 -26.3737 -178.681 -12.6941 -180.966
lowerback 9.74469 -2.13164 -1.42267
upperback -1.41096 -2.91998 1.82701
thorax -6.78912 -1.34867 3.17284
lowerneck -18.5193 -5.34496 -5.84915
upperneck 11.9964 -6.28253 3.49224
head 6.98431 -2.98127 1.3589
rclavicle -4.2192e-014 1.90833e-014
rhumerus -42.1786 -14.9638 -71.5314
rradius 42.9771
rwrist 1.23266
rhand -23.6521 -9.99978
rfingers 7.12502
rthumb 2.81337 -39.961
lclavicle -4.2192e-014 1.90833e-014
lhumerus -38.8529 9.89564 81.9395
lradius 38.6358
lwrist -11.8259
lhand -2.78351 4.84377
lfingers 7.12502
lthumb 22.9217 33.5013
rfemur -19.8961 6.4426 11.9365
rtibia 32.3989
rfoot -12.9481 -0.247185
rtoes -27.9555
lfemur -19.55 -6.17732 -20.6558
ltibia 36.5999
lfoot -17.5702 -13.4651
ltoes 11.5881
